M48
INCH,TZ
T10C0.012
T11C0.020
T12C0.039
%
T10
X000181Y-02059
X000429Y-02244
X001015Y-02441
X001019Y-02031
X001427Y-02815
X001287Y-03555
X001883Y-03486
X002252Y-02165
X003651Y-01718
X003574Y-00551
X002971Y-00344
X002992Y-00043
X001161Y-00259
X000216Y-03208
X000285Y-04380
X-03511Y-02472
X-03039Y-02086
X-02370Y-02074
X-02539Y-01004
X-03307Y-01338
X-04104Y-01043
X-03582Y-00167
X-01085Y-00078
X-00724Y-00527
X-00535Y-00779
X-00736Y-01027
X-00736Y-01350
X-00381Y-01748
X-00397Y-02279
X-00090Y-02240
X-01444Y-00637
X-01535Y-02858
X-01850Y-02858
X-01693Y-03592
X-00960Y-02610
X-00216Y-03208
X-00303Y-04358
X-03582Y000570
X-01472Y000405
X-00226Y001023
X-01500Y001338
X-01842Y001492
X-02173Y001393
X-02047Y001722
X-02805Y001929
X-03031Y002696
X-02539Y002696
X-02539Y003189
X-01820Y004015
X003307Y000118
X003649Y000216
X003484Y000586
X003519Y000988
X002543Y001000
X002189Y000622
X002913Y000543
X000385Y000417
X000716Y001374
X001303Y001385
X001094Y000159
X001429Y002137
X001210Y002696
X000718Y002696
X002096Y002893
X002096Y003385
X002096Y003878
X002549Y002746
X003051Y002746
X002559Y001464
X002153Y001468
X003519Y001326
X004074Y001259
T11
X001107Y-04188
X001589Y-00406
X-01589Y-00406
X-01107Y-04188
T12
X001728Y001678
X001728Y002478
X003728Y002078
M30

