M48
INCH,TZ
T10C0.012
T11C0.028
T12C0.047
T13C0.039
%
T10
X006860Y000610
X007116Y000403
X007295Y001515
X006866Y001708
X006630Y001244
X005492Y000905
X005167Y000797
X004763Y000836
X004822Y000315
X004232Y000649
X003287Y000698
X003287Y000403
X002007Y000315
X001279Y001181
X000689Y001181
X002923Y001427
X002824Y002519
X002076Y002559
X002076Y003346
X003149Y003484
X002943Y003700
X002736Y003917
X002746Y005551
X002165Y005315
X001279Y004724
X000689Y004724
X000393Y004133
X000393Y002952
X000984Y002952
X000393Y001771
X005009Y002549
X005009Y003336
X004222Y003336
X004891Y004252
X004322Y004984
X003789Y005541
X005708Y004970
X006149Y004645
X006630Y004913
X006441Y005212
X006630Y005515
X006956Y003874
X007185Y003492
X007177Y002901
X006960Y003110
X006752Y002687
X007196Y002212
X007134Y001857
X005807Y001761
X005807Y002549
X005807Y003336
X007484Y004063
X008090Y003100
X008523Y003100
X008523Y002667
X008090Y002667
X009252Y001870
X009547Y004724
X009006Y004803
X009252Y004281
X009645Y004133
X009842Y005315
X008464Y005216
X010137Y001181
X010728Y001181
X011319Y001181
X011023Y000590
X010433Y000590
X011614Y000590
X012204Y000590
X012795Y000590
X013385Y000590
X010433Y001771
X011023Y001771
X011319Y002362
X010728Y002362
X010137Y002362
X010433Y004133
X011023Y004133
X011319Y004724
X010728Y004724
X010137Y004724
X010433Y005315
X011023Y005315
X011614Y005315
X012204Y005315
X012795Y005315
X013385Y005315
T11
T12
X001053Y002067
X001053Y003838
T13
X007572Y000994
X009572Y000594
X009572Y000139
M30

